<?xml version="1.0" encoding="UTF-8" standalone="no"?>
<!-- Created with Inkscape (http://www.inkscape.org/) -->

<svg
   width="77.841003mm"
   height="19.031mm"
   viewBox="0 0 77.841003 19.031"
   version="1.1"
   id="svg1"
   inkscape:version="1.3.2 (091e20ef0f, 2023-11-25, custom)"
   sodipodi:docname="bspwm_sxhkd.svg"
   xmlns:inkscape="http://www.inkscape.org/namespaces/inkscape"
   xmlns:sodipodi="http://sodipodi.sourceforge.net/DTD/sodipodi-0.dtd"
   xmlns="http://www.w3.org/2000/svg"
   xmlns:svg="http://www.w3.org/2000/svg">
  <sodipodi:namedview
     id="namedview1"
     pagecolor="#ffffff"
     bordercolor="#000000"
     borderopacity="0.25"
     inkscape:showpageshadow="2"
     inkscape:pageopacity="0.0"
     inkscape:pagecheckerboard="0"
     inkscape:deskcolor="#d1d1d1"
     inkscape:document-units="mm"
     inkscape:zoom="1.7354701"
     inkscape:cx="140.88402"
     inkscape:cy="209.45333"
     inkscape:window-width="1886"
     inkscape:window-height="1011"
     inkscape:window-x="15"
     inkscape:window-y="50"
     inkscape:window-maximized="1"
     inkscape:current-layer="layer2" />
  <defs
     id="defs1">
    <rect
       x="117.03151"
       y="134.59352"
       width="569.31335"
       height="286.20743"
       id="rect1" />
  </defs>
  <g
     inkscape:label="Layer 1"
     inkscape:groupmode="layer"
     id="layer1"
     transform="translate(-32.233296,-38.134168)"
     style="display:inline;opacity:1" />
  <g
     inkscape:groupmode="layer"
     id="layer2"
     inkscape:label="Layer 2">
    <path
       d="M 9.8441266,23.615398 C 10.191622,23.08501 10.255635,22.572911 10.292213,21.89621 h 0.83216 c -0.07316,0.786437 -0.109735,1.554585 -0.667557,2.304444 l 1.243668,1.271102 H 10.575696 L 9.9355728,24.813343 c -0.6126895,0.530388 -1.2802468,0.786438 -2.0666841,0.786438 -1.4265607,0 -2.4416135,-0.905318 -2.4416135,-2.185565 0,-0.768148 0.4023633,-1.42656 1.1979452,-2.020961 -0.2834832,-0.374929 -0.4389417,-0.749858 -0.4389417,-1.106499 0,-0.960185 0.7224249,-1.600308 1.8106347,-1.600308 0.5029541,0 0.987619,0.109735 1.4905731,0.320062 L 9.1765694,19.637488 C 8.655326,19.36315 8.1889504,19.207691 7.7774425,19.207691 c -0.6218341,0 -1.0516313,0.365785 -1.0516313,0.896173 0,0.146314 0.045723,0.301773 0.1280247,0.448086 0.091446,0.155459 0.265194,0.37493 0.5395326,0.658413 z M 6.8629805,21.704173 c -0.5486772,0.493809 -0.7955819,0.960185 -0.7955819,1.490573 0,0.877883 0.7132803,1.527151 1.6734654,1.527151 0.5761111,0 1.0699206,-0.192037 1.5088623,-0.566966 z M 20.909126,19.902682 c -0.676702,-0.329206 -1.280247,-0.484664 -1.847214,-0.484664 -0.978474,0 -1.536296,0.393218 -1.536296,1.097354 0,0.585256 0.292628,0.85045 1.280247,1.033342 l 0.539533,0.109735 c 1.344259,0.25605 1.966093,0.887029 1.966093,1.975238 0,1.289392 -0.877884,1.966094 -2.551349,1.966094 -0.630979,0 -1.344259,-0.13717 -2.112407,-0.420653 v -1.426561 c 0.731569,0.411508 1.435705,0.621835 2.112407,0.621835 1.033342,0 1.609453,-0.502955 1.609453,-0.896173 0,-0.35664 -0.374929,-0.777293 -1.289391,-0.960185 l -0.548678,-0.109736 c -1.344259,-0.265194 -1.911225,-0.804726 -1.911225,-1.819779 0,-1.179656 0.877883,-1.902081 2.341023,-1.902081 0.621834,0 1.271102,0.109735 1.947804,0.338351 z m 1.746621,5.569074 2.2953,-3.109171 -1.993528,-3.557257 h 0.96933 l 1.664321,2.834832 1.664321,-2.834832 h 0.969329 l -2.057539,3.557257 2.194709,3.109171 h -1.453995 l -1.389982,-2.386746 -1.399127,2.386746 z m 8.092987,0 h -1.042486 l 0.09145,-6.666428 h 0.95104 v 3.182328 h 3.090882 v -3.182328 h 0.951041 l 0.09145,6.666428 h -1.042487 v -2.240432 h -3.090882 z m 6.638992,0 h -1.170511 l 0.182892,-6.666428 h 0.896173 l -0.0823,2.816543 2.99029,-2.816543 h 1.161367 l -3.310352,3.109171 3.548112,3.557257 H 39.4727 l -2.258721,-3.209762 z m 5.550791,0 v -6.666428 h 1.856358 c 2.587927,0 3.749294,1.042487 3.749294,3.328642 0,2.295299 -1.179656,3.337786 -3.749294,3.337786 z m 0.951041,-5.925714 v 4.243104 h 1.088209 c 1.838069,0 2.505626,-0.384074 2.642796,-1.746622 0,-1.664321 -0.804727,-2.496482 -2.642796,-2.496482 z"
       id="text2"
       style="font-size:9.14462px;font-family:'OpenDyslexic Nerd Font';-inkscape-font-specification:'OpenDyslexic Nerd Font, Normal';stroke:#000000;stroke-width:0.216014"
       transform="scale(1.4637324,0.68318498)"
       aria-label="&amp; SXHKD" />
    <path
       d="m 120.92458,183.13055 v -38.87997 h 12.15999 c 8,0 12.53333,3.46666 12.53333,9.59999 0,4.8 -2.29333,7.62666 -6.56,8.32 6.88,1.11999 9.97333,4.79999 9.97333,10.07999 0,6.93333 -5.38666,10.87999 -14.13332,10.87999 z m 5.28,-35.35998 v 12.53333 h 7.78666 c 5.12,0 7.62666,-1.92 7.62666,-5.86666 0,-3.94667 -2.50666,-6.66667 -7.62666,-6.66667 z m 0,16.79999 v 10.82666 h 8.42666 c 5.65333,0 8.31999,-1.22666 8.31999,-6.07999 0,-0.85334 -0.64,-1.86667 -2.02666,-3.04 -1.38667,-1.12 -3.46667,-1.70667 -6.29333,-1.70667 z m 55.62665,-13.91999 c -3.94667,-1.92 -7.46666,-2.82666 -10.77333,-2.82666 -5.70666,0 -8.95999,2.29333 -8.95999,6.39999 0,3.41333 1.70666,4.96 7.46666,6.02667 l 3.14666,0.64 c 7.84,1.49333 11.46666,5.17333 11.46666,11.51999 0,7.51999 -5.11999,11.46666 -14.87999,11.46666 -3.67999,0 -7.83999,-0.8 -12.31999,-2.45333 v -8.32 c 4.26666,2.4 8.37333,3.62667 12.31999,3.62667 6.02667,0 9.38666,-2.93334 9.38666,-5.22667 0,-2.08 -2.18666,-4.53333 -7.51999,-5.59999 l -3.2,-0.64 c -7.83999,-1.54667 -11.14666,-4.69333 -11.14666,-10.61333 0,-6.88 5.12,-11.09333 13.65333,-11.09333 3.62666,0 7.41332,0.64 11.35999,1.97333 z m 16.47998,32.47998 h -6.29333 l 1.6,-38.87997 h 11.57333 c 8.74666,0 13.22666,3.99999 13.22666,11.62666 0,7.67999 -4.48,12.15999 -13.22666,12.15999 h -6.34667 z m 0.8,-36.63998 -0.53333,14.61333 h 7.14666 c 5.22666,0 8.21333,-2.61333 8.21333,-7.30666 0,-4.69333 -2.98667,-7.30667 -8.21333,-7.30667 z m 44.05332,36.63998 h -8.21333 l -8.69333,-38.87997 h 5.06666 l 7.89333,27.89331 9.22666,-17.97332 h 4.58667 l 8.42666,18.50666 8.95999,-28.42665 h 5.06667 l -9.76,38.87997 h -7.67999 l -7.14666,-21.01332 z m 46.77332,0 h -6.66667 l 0.8,-38.87997 h 7.84 l 9.65333,23.09332 10.23999,-23.09332 h 7.30666 l 0.8,38.87997 h -6.71999 l 1.06666,-34.13331 -9.49333,27.94665 h -6.34666 l -9.49333,-27.94665 z"
       id="text1"
       style="font-size:53.3333px;font-family:'OpenDyslexic Nerd Font';-inkscape-font-specification:'OpenDyslexic Nerd Font, Normal';white-space:pre;stroke:#000000;stroke-width:0.755906"
       transform="matrix(0.31751311,0,0,0.26394135,-30.159553,-36.676425)"
       aria-label="BSPWM" />
  </g>
</svg>
